# xmcd
#
# Track frame offsets: 
#        150
#        13051
#        36269
#        51874
#        71235
#
# Disc length: 1188 seconds
#
# Revision: 0
# Processed by: cddbd v1.5.2PL0 Copyright (c) Steve Scherf et al.
# Submitted via: ExactAudioCopy v0.95b4
#
DISCID=4304a205
DTITLE=Fields of Mars - fields of mars
DYEAR=1998
DGENRE=Pop
TTITLE0=idiot savant
TTITLE1=everything I'm not
TTITLE2=a space
TTITLE3=serpents
TTITLE4=nobody's fault
EXTD=
EXTT0=
EXTT1=
EXTT2=
EXTT3=
EXTT4=
PLAYORDER=
